<svg xmlns="http://www.w3.org/2000/svg" viewBox="0 0 80 80" width="40" height="40"><path fill="#b6c9d6" d="M6.998 77.5a4.471 4.471 0 0 1-3.181-1.317 4.503 4.503 0 0 1 0-6.36l36.828-35.11 4.656 4.661L10.17 76.191A4.462 4.462 0 0 1 6.998 77.5z"/><path fill="#788b9c" d="m40.636 35.411 3.966 3.97L9.825 75.829A3.974 3.974 0 0 1 6.998 77a3.972 3.972 0 0 1-2.827-1.171c-1.559-1.559-1.559-4.095-.017-5.637l36.482-34.781m.018-1.398L3.464 69.469a4.998 4.998 0 0 0 7.068 7.067L46 39.366l-5.346-5.353z"/><path fill="#d1edff" d="M52 53.5c-14.061 0-25.5-11.439-25.5-25.5S37.939 2.5 52 2.5 77.5 13.939 77.5 28 66.061 53.5 52 53.5z"/><path fill="#788b9c" d="M52 3c13.785 0 25 11.215 25 25S65.785 53 52 53 27 41.785 27 28 38.215 3 52 3m0-1C37.641 2 26 13.641 26 28s11.641 26 26 26 26-11.641 26-26S66.359 2 52 2z"/></svg>